# xmcd
#
# Track frame offsets:
#	150
#	11054
#	25393
#	37221
#	49560
#	68703
#	82445
#	93259
#	107143
#	120182
#	134150
#	146350
#	157417
#	169273
#	187138
#	201003
#	213948
#	226406
#
# Disc length: 3145 seconds
# Revision: 0
# Processed by: cddbd v1.5.2PL0 Copyright (c) Steve Scherf et al.
# Submitted via: dBpowerAMP V12.0
#
DISCID=0c0c4712
DTITLE=Various Artist - Super Stars in Country Music
DYEAR=1900
DGENRE=
TTITLE0=Kendalls - Heaven's Just a Sin Away
TTITLE1=Johnny Duncan - Stranger
TTITLE2=Crystal Gayle - Don't it Make My Brown Eyes Blue
TTITLE3=Larry Gatlin - Statues Without Hearts
TTITLE4=Marty Robbins - El Paso City
TTITLE5=Joe Stampley - There She Goes Again
TTITLE6=George Jones and Tammy Wynette - Near You
TTITLE7=Mel Tillis - What Did I Promise Her Last Night
TTITLE8=Oak Ridge Boys - You're the One
TTITLE9=Loretta Lynn - She's Got You
TTITLE10=Charlie Rich - Rollin' With the Flow
TTITLE11=Eddie Rabbitt - Drinkin' My Baby Off My Mind
TTITLE12=Roy Clark - If I Had to Do it All Over Again
TTITLE13=Gene Watson - Paper Rosie
TTITLE14=Don Williams - I'm Just a Country Boy
TTITLE15=Freddy Fender - You'll Lose a Good Thing
TTITLE16=Dave and Sugar - The Door is Always Open
TTITLE17=Linda Ronstadt - When Will I Be Loved?
EXTD=
EXTT0=
EXTT1=
EXTT2=
EXTT3=
EXTT4=
EXTT5=
EXTT6=
EXTT7=
EXTT8=
EXTT9=
EXTT10=
EXTT11=
EXTT12=
EXTT13=
EXTT14=
EXTT15=
EXTT16=
EXTT17=
PLAYORDER=
